#!OML:ASF F:\VICON\USERDATA\INSTALL\rory3\rory3.ASF
:FULLY-SPECIFIED
:DEGREES
2615
root -10.2428 18.1709 4.41896 720.153 -1.4523 1.47979
lowerback 9.38671 3.94777 -0.691606
upperback 2.66168 5.12652 -1.50843
thorax -2.40221 2.55392 -1.74655
lowerneck -15.0316 11.7264 -4.74691
upperneck 47.1182 19.3862 4.8163
head 19.8041 7.44705 6.95676
rclavicle -3.49116e-014 1.70955e-014
rhumerus -46.2864 -12.3836 -84.2494
rradius 31.8581
rwrist 4.72891
rhand -15.9375 7.31476
rfingers 7.12502
rthumb 10.2604 -22.415
lclavicle -3.49116e-014 1.70955e-014
lhumerus -34.7297 8.05909 76.6614
lradius 42.7914
lwrist -0.991784
lhand -19.2558 27.5273
lfingers 7.12502
lthumb 7.05825 57.3896
rfemur -8.06319 -7.57973 18.4578
rtibia 57.6461
rfoot -4.64072 2.03144
rtoes -13.4764
lfemur -9.44888 -4.84369 -25.7804
ltibia 22.8481
lfoot -1.00396 -12.8241
ltoes 2.20021
2616
root -10.2248 18.1887 4.3237 720.251 -1.7024 1.38397
lowerback 9.27994 4.04256 -0.599437
upperback 2.61306 5.26203 -1.5166
thorax -2.38175 2.62135 -1.81465
lowerneck -15.0336 11.7766 -4.6627
upperneck 47.1203 19.446 4.80682
head 19.8154 7.4823 6.9519
rclavicle 1.13556e-014 2.18663e-015
rhumerus -46.3476 -12.3389 -84.3345
rradius 31.5841
rwrist 4.86999
rhand -15.7788 7.30587
rfingers 7.12502
rthumb 10.4135 -22.4162
lclavicle 1.13556e-014 2.18663e-015
lhumerus -34.6983 7.93992 76.6672
lradius 42.9312
lwrist -0.944831
lhand -18.411 28.8156
lfingers 7.12502
lthumb 7.87366 58.6489
rfemur -7.0884 -7.12801 18.7871
rtibia 56.7583
rfoot -3.86869 2.53204
rtoes -11.0197
lfemur -9.92966 -4.7946 -25.637
ltibia 22.8871
lfoot -0.393809 -12.648
ltoes 5.0673
2617
root -10.2072 18.1925 4.21943 720.377 -1.98775 1.09592
lowerback 9.24188 4.12678 -0.323684
upperback 2.51758 5.39986 -1.48309
thorax -2.43424 2.68874 -1.949
lowerneck -15.0085 11.8382 -4.54541
upperneck 47.1234 19.5167 4.78252
head 19.8275 7.52554 6.9349
rclavicle 6.31141e-015 -7.7526e-015
rhumerus -46.4529 -12.2313 -84.4654
rradius 31.4079
rwrist 4.82587
rhand -15.6796 7.28831
rfingers 7.12502
rthumb 10.5092 -22.429
lclavicle 6.31141e-015 -7.7526e-015
lhumerus -34.6601 7.83448 76.6518
lradius 43.0079
lwrist -0.828804
lhand -18.7347 30.8468
lfingers 7.12502
lthumb 7.56126 60.6916
rfemur -6.05857 -6.88351 19.4445
rtibia 55.7081
rfoot -2.82541 3.0081
rtoes -12.729
lfemur -10.5424 -4.76079 -25.2551
ltibia 22.9633
lfoot 0.156917 -12.6302
ltoes 7.15947
2618
root -10.1887 18.2006 4.10978 720.543 -2.2004 0.812659
lowerback 9.21116 4.15759 -0.0179386
upperback 2.42072 5.4692 -1.46548
thorax -2.4889 2.72166 -2.10936
lowerneck -14.9653 11.8996 -4.45215
upperneck 47.0842 19.592 4.73713
head 19.8062 7.56833 6.9034
rclavicle -1.18525e-014 1.63003e-014
rhumerus -46.5339 -12.0727 -84.6263
rradius 31.3224
rwrist 4.71742
rhand -15.7634 7.35793
rfingers 7.12502
rthumb 10.4284 -22.3634
lclavicle -1.18525e-014 1.63003e-014
lhumerus -34.6325 7.84749 76.624
lradius 43.1353
lwrist -0.732864
lhand -19.761 30.047
lfingers 7.12502
lthumb 6.57056 59.9251
rfemur -5.0819 -6.62612 20.1106
rtibia 54.5428
rfoot -1.23642 3.52803
rtoes -12.4118
lfemur -11.2571 -4.8049 -24.9096
ltibia 23.1101
lfoot 0.198331 -12.7287
ltoes 6.40037
2619
root -10.1708 18.194 3.99524 720.754 -2.41243 0.677168
lowerback 9.03312 4.19271 0.112565
upperback 2.40311 5.52967 -1.46543
thorax -2.39473 2.75247 -2.17356
lowerneck -14.9772 11.9513 -4.48504
upperneck 46.9825 19.6675 4.72422
head 19.7301 7.60121 6.8985
rclavicle -3.26007e-014 1.19271e-014
rhumerus -46.3817 -12.1241 -84.6266
rradius 31.1241
rwrist 4.89744
rhand -15.7422 7.51314
rfingers 7.12502
rthumb 10.4489 -22.2072
lclavicle -3.26007e-014 1.19271e-014
lhumerus -34.4965 7.88724 76.6442
lradius 43.2522
lwrist -0.552254
lhand -19.4801 27.8568
lfingers 7.12502
lthumb 6.84174 57.7262
rfemur -4.20426 -6.32639 20.6115
rtibia 53.2483
rfoot 0.379626 3.82817
rtoes -10.4666
lfemur -12.0909 -4.84071 -24.7195
ltibia 23.4646
lfoot 0.0122735 -12.7542
ltoes 5.32576
2620
root -10.1513 18.1747 3.88018 720.928 -2.6965 0.446742
lowerback 8.96597 4.26237 0.358229
upperback 2.33604 5.64579 -1.42271
thorax -2.40368 2.8092 -2.27484
lowerneck -14.9966 12.0051 -4.54991
upperneck 46.992 19.7552 4.77531
head 19.7119 7.63298 6.94486
rclavicle 2.20899e-014 1.80894e-014
rhumerus -46.3538 -12.4436 -84.3798
rradius 30.9171
rwrist 5.42938
rhand -15.5002 7.68212
rfingers 7.12502
rthumb 10.6823 -22.0263
lclavicle 2.20899e-014 1.80894e-014
lhumerus -34.5008 7.89851 76.6646
lradius 43.3781
lwrist -0.546044
lhand -18.4286 28.5639
lfingers 7.12502
lthumb 7.8567 58.3979
rfemur -3.28599 -5.98523 21.202
rtibia 51.8311
rfoot 1.52631 4.05081
rtoes -9.9342
lfemur -12.8497 -4.85359 -24.4284
ltibia 23.8467
lfoot -0.048017 -12.5052
ltoes 5.94602
2621
root -10.1299 18.1592 3.76606 721.083 -2.98672 0.294597
lowerback 8.97959 4.3631 0.590106
upperback 2.23055 5.79947 -1.43992
thorax -2.48957 2.88332 -2.44281
lowerneck -14.9124 12.0314 -4.4911
upperneck 46.9079 19.75 4.77728
head 19.6395 7.65548 6.91425
rclavicle -4.39811e-015 3.57812e-015
rhumerus -46.4995 -12.7716 -84.2066
rradius 30.8936
rwrist 5.7416
rhand -15.549 7.63744
rfingers 7.12502
rthumb 10.6352 -22.0734
lclavicle -4.39811e-015 3.57812e-015
lhumerus -34.6103 7.79463 76.6936
lradius 43.6074
lwrist -0.611514
lhand -18.4415 30.1399
lfingers 7.12502
lthumb 7.84424 59.9743
rfemur -2.26936 -5.60896 21.6768
rtibia 50.2695
rfoot 2.20528 4.40072
rtoes -11.0215
lfemur -13.6008 -4.8248 -24.26
ltibia 24.2506
lfoot -0.363192 -12.2511
ltoes 6.86856
2622
root -10.1082 18.146 3.64515 721.299 -3.24231 0.119775
lowerback 8.88952 4.42125 0.809029
upperback 2.19195 5.897 -1.43144
thorax -2.45442 2.93143 -2.55845
lowerneck -14.8825 12.0872 -4.48225
upperneck 46.7555 19.8051 4.75806
head 19.5278 7.69445 6.88579
rclavicle 2.90226e-014 -1.45113e-014
rhumerus -46.4077 -12.8011 -84.2051
rradius 30.9573
rwrist 5.69809
rhand -15.5955 7.30671
rfingers 7.12502
rthumb 10.5904 -22.4064
lclavicle 2.90226e-014 -1.45113e-014
lhumerus -34.6847 7.65687 76.7922
lradius 43.9918
lwrist -0.47893
lhand -18.4714 30.5689
lfingers 7.12502
lthumb 7.81532 60.4045
rfemur -1.33309 -5.24749 22.1985
rtibia 48.5379
rfoot 2.30701 4.60229
rtoes -11.2299
lfemur -14.4609 -4.78561 -24.0546
ltibia 24.6707
lfoot -0.735553 -12.1223
ltoes 6.25426
2623
root -10.0877 18.1266 3.52046 721.539 -3.39784 -0.0925449
lowerback 8.76948 4.41422 1.04549
upperback 2.20189 5.91054 -1.37777
thorax -2.35906 2.9389 -2.62329
lowerneck -15.1063 12.1596 -4.57937
upperneck 46.7457 19.9512 4.79522
head 19.5462 7.73179 6.96128
rclavicle 2.45002e-014 -8.34896e-015
rhumerus -46.1696 -12.6277 -84.2677
rradius 31.063
rwrist 5.48808
rhand -15.3582 7.05226
rfingers 7.12502
rthumb 10.8193 -22.6491
lclavicle 2.45002e-014 -8.34896e-015
lhumerus -34.7041 7.51348 76.971
lradius 44.3652
lwrist 0.101207
lhand -18.3107 31.028
lfingers 7.12502
lthumb 7.97043 60.8577
rfemur -0.405216 -5.01104 22.795
rtibia 46.6127
rfoot 2.12443 4.73029
rtoes -11.8073
lfemur -15.3623 -4.73551 -23.8019
ltibia 25.0954
lfoot -0.648254 -12.1818
ltoes 3.88292
2624
root -10.0652 18.1069 3.39702 721.748 -3.49246 -0.195031
lowerback 8.71978 4.40484 1.25238
upperback 2.16995 5.91588 -1.39579
thorax -2.3415 2.94108 -2.75335
lowerneck -15.2191 12.1838 -4.58943
upperneck 46.6794 19.9961 4.77568
head 19.5313 7.74509 6.96489
rclavicle 2.48978e-014 -6.95746e-015
rhumerus -46.0557 -12.5638 -84.3358
rradius 31.2086
rwrist 5.46012
rhand -15.198 7.12544
rfingers 7.12502
rthumb 10.9738 -22.5677
lclavicle 2.48978e-014 -6.95746e-015
lhumerus -34.6714 7.42872 77.0839
lradius 44.5605
lwrist 0.454323
lhand -18.339 31.2244
lfingers 7.12502
lthumb 7.94318 61.0552
rfemur 0.619143 -4.83143 23.2461
rtibia 44.5076
rfoot 2.25517 4.79131
rtoes -12.4053
lfemur -16.2484 -4.70772 -23.6739
ltibia 25.5344
lfoot -0.376989 -12.2542
ltoes 2.74506
2625
root -10.0397 18.0833 3.2717 721.92 -3.6514 -0.294204
lowerback 8.69884 4.42843 1.50991
upperback 2.15095 5.96939 -1.41751
thorax -2.31792 2.9673 -2.9215
lowerneck -15.2868 12.2055 -4.6367
upperneck 46.6576 20.0133 4.84157
head 19.5105 7.75456 7.00592
rclavicle -4.08751e-014 -5.1684e-015
rhumerus -45.8643 -12.5817 -84.3353
rradius 31.3041
rwrist 5.33787
rhand -15.0933 7.24756
rfingers 7.12502
rthumb 11.0747 -22.4402
lclavicle -4.08751e-014 -5.1684e-015
lhumerus -34.6057 7.52686 77.1094
lradius 44.7428
lwrist -0.0221568
lhand -18.2637 29.8629
lfingers 7.12502
lthumb 8.01587 59.6909
rfemur 1.67043 -4.60008 23.6677
rtibia 42.2472
rfoot 2.31259 4.59807
rtoes -10.7346
lfemur -17.0961 -4.73456 -23.5348
ltibia 25.9705
lfoot -0.205712 -12.1166
ltoes 3.64897
